External Loads File
version=1
nRows=77
nColumns=13
Range=5.000000e-03-10 seconds
endheader
time 	forceRightX 	forceRightY 	forceRightZ 	pointRightX 	pointRightY 	pointRightZ 	forceLeftX 	forceLeftY 	forceLeftZ 	pointLeftX 	pointLeftY 	pointLeftZ 		
2.505000 104.223709 579.581145 -0.000000 0.294204 0.178024 -0.159228 9.669803 -40.692894 -0.000000 0.151117 0.473317 -0.401227
2.510000 106.789542 573.170614 -0.000000 0.291920 0.176331 -0.159164 5.423105 -43.473818 -0.000000 0.154232 0.475159 -0.401271
2.515000 109.599910 565.824808 -0.000000 0.289563 0.174523 -0.159096 0.769396 -45.906173 -0.000000 0.157423 0.476924 -0.401288
2.520000 112.187202 557.760770 -0.000000 0.287160 0.172873 -0.159057 -4.157411 -47.655324 -0.000000 0.160613 0.478650 -0.401460
2.525000 114.434834 549.282847 -0.000000 0.284737 0.171435 -0.159015 -9.195890 -48.444376 -0.000000 0.163808 0.480408 -0.401378
2.530000 116.494921 540.726304 -0.000000 0.282275 0.169870 -0.158949 -14.195417 -48.056405 -0.000000 0.167059 0.482005 -0.401401
2.535000 118.275969 532.527344 -0.000000 0.279747 0.168357 -0.158943 -19.014653 -46.358451 -0.000000 0.170283 0.483628 -0.401478
2.540000 119.793206 525.127795 -0.000000 0.277192 0.166926 -0.158877 -23.576249 -43.312071 -0.000000 0.173551 0.485137 -0.401528
2.545000 121.164206 518.929100 -0.000000 0.274577 0.165558 -0.158824 -27.871614 -38.956470 -0.000000 0.176826 0.486658 -0.401551
2.550000 122.336816 514.301389 -0.000000 0.271952 0.164198 -0.158769 -31.928282 -33.404090 -0.000000 0.180122 0.488046 -0.401583
2.555000 123.520443 511.456231 -0.000000 0.269187 0.162953 -0.158723 -35.817096 -26.815589 -0.000000 0.183442 0.489411 -0.401567
2.560000 124.394465 510.649044 -0.000000 0.266447 0.161759 -0.158686 -39.578260 -19.453534 -0.000000 0.186715 0.490689 -0.401698
2.565000 125.114317 511.964629 -0.000000 0.263640 0.160590 -0.158640 -43.272372 -11.602136 -0.000000 0.189940 0.491846 -0.401722
2.570000 125.786758 515.432938 -0.000000 0.260897 0.159441 -0.158623 -46.953605 -3.542848 -0.000000 0.193263 0.493000 -0.401792
2.575000 126.561559 520.967248 -0.000000 0.258002 0.158418 -0.158603 -50.678658 4.543794 -0.000000 0.196588 0.494047 -0.401819
2.580000 127.201249 528.460358 -0.000000 0.255126 0.157401 -0.158588 -54.494480 12.591237 -0.000000 0.199907 0.494887 -0.401878
2.585000 127.902325 537.602858 -0.000000 0.252235 0.156510 -0.158550 -58.409524 20.670698 -0.000000 0.203276 0.495815 -0.401940
2.590000 128.704137 548.005013 -0.000000 0.249324 0.155598 -0.158545 -62.387119 28.809845 -0.000000 0.206701 0.496566 -0.401932
2.595000 129.350589 559.177368 -0.000000 0.246441 0.154653 -0.158612 -66.379004 36.896516 -0.000000 0.209989 0.497307 -0.402042
2.600000 130.178530 570.329324 -0.000000 0.243571 0.153946 -0.158611 -70.278565 44.806904 -0.000000 0.213316 0.498046 -0.402077
2.605000 131.140815 580.688318 -0.000000 0.240669 0.153247 -0.158557 -73.969976 52.365574 -0.000000 0.216584 0.498621 -0.402159
2.610000 132.227086 589.509841 -0.000000 0.237747 0.152667 -0.158507 -77.334826 59.448117 -0.000000 0.219838 0.499128 -0.402174
2.615000 133.502883 596.127975 -0.000000 0.234860 0.152066 -0.158432 -80.283783 66.006891 -0.000000 0.223219 0.499675 -0.402146
2.620000 134.610056 600.072720 -0.000000 0.231982 0.151638 -0.158374 -82.827662 71.999799 -0.000000 0.226544 0.500178 -0.402260
2.625000 135.317720 600.952045 -0.000000 0.229050 0.151192 -0.158264 -85.014706 77.465767 -0.000000 0.229659 0.500531 -0.402262
2.630000 135.783335 598.446126 -0.000000 0.226090 0.150857 -0.158193 -86.859162 82.567404 -0.000000 0.232737 0.500867 -0.402362
2.635000 135.903107 592.524570 -0.000000 0.223129 0.150546 -0.158267 -88.395083 87.450035 -0.000000 0.235838 0.501187 -0.402183
2.640000 135.551014 583.401110 -0.000000 0.220128 0.150401 -0.158557 -89.653979 92.185413 -0.000000 0.238900 0.501352 -0.402172
2.645000 134.357294 571.513754 -0.000000 0.217274 0.150279 -0.158476 -90.717330 96.719418 -0.000000 0.241924 0.501572 -0.402123
2.650000 132.540432 557.238692 -0.000000 0.214457 0.150217 -0.158435 -91.580189 101.093806 -0.000000 0.244917 0.501586 -0.401999
2.655000 130.115106 541.009676 -0.000000 0.211709 0.150329 -0.158328 -92.258629 105.403286 -0.000000 0.247893 0.501614 -0.401881
2.660000 127.326845 523.187431 -0.000000 0.208875 0.150392 -0.158279 -92.714138 109.810211 -0.000000 0.250824 0.501488 -0.401691
2.665000 124.099650 504.180484 -0.000000 0.206068 0.150627 -0.158236 -92.983075 114.338242 -0.000000 0.253726 0.501540 -0.401532
2.670000 120.541393 484.305304 -0.000000 0.203337 0.150881 -0.158105 -93.091007 118.946534 -0.000000 0.256585 0.501246 -0.401432
2.675000 116.866302 463.784240 -0.000000 0.200543 0.151352 -0.158112 -93.043901 123.614404 -0.000000 0.259357 0.500926 -0.401335
2.680000 113.016495 442.825822 -0.000000 0.197847 0.151707 -0.157977 -92.912559 128.347863 -0.000000 0.262119 0.500496 -0.401229
2.685000 109.433726 421.408838 -0.000000 0.195109 0.152258 -0.157973 -92.603374 133.367474 -0.000000 0.264973 0.499978 -0.401236
2.690000 105.895487 399.573503 -0.000000 0.192359 0.152963 -0.157904 -92.148453 138.875369 -0.000000 0.267707 0.499383 -0.401149
2.695000 102.426481 377.218043 -0.000000 0.189600 0.153553 -0.157836 -91.430105 145.217244 -0.000000 0.270346 0.498738 -0.401049
2.700000 99.204221 354.148505 -0.000000 0.186866 0.154361 -0.157782 -90.208610 152.824565 -0.000000 0.272939 0.497940 -0.400932
2.705000 96.225853 330.185718 -0.000000 0.184168 0.155251 -0.157678 -88.294403 162.109497 -0.000000 0.275512 0.497075 -0.400790
2.710000 93.544008 305.121581 -0.000000 0.181368 0.156151 -0.157639 -85.495716 173.504985 -0.000000 0.277969 0.496035 -0.400696
2.715000 91.050565 278.812258 -0.000000 0.178564 0.157130 -0.157571 -81.743751 187.360139 -0.000000 0.280321 0.494903 -0.400731
2.720000 88.693262 251.188562 -0.000000 0.175737 0.158280 -0.157523 -77.003105 203.920652 -0.000000 0.282629 0.493811 -0.400555
2.725000 86.460463 222.398097 -0.000000 0.172795 0.159560 -0.157359 -71.271058 223.255750 -0.000000 0.284924 0.492559 -0.400273
2.730000 84.117118 192.990575 -0.000000 0.169887 0.160963 -0.157332 -64.869296 245.145656 -0.000000 0.287116 0.491104 -0.400158
2.735000 81.765564 163.587800 -0.000000 0.166969 0.162545 -0.157337 -57.881213 269.283625 -0.000000 0.289399 0.489446 -0.400174
2.740000 79.282037 134.912559 -0.000000 0.163986 0.164195 -0.157370 -50.752146 295.122672 -0.000000 0.291526 0.487667 -0.400016
2.745000 76.749340 107.438760 -0.000000 0.160986 0.166074 -0.157361 -43.703210 322.046070 -0.000000 0.293550 0.485668 -0.399833
2.750000 74.173604 81.428350 -0.000000 0.157976 0.167933 -0.157475 -37.076827 349.330524 -0.000000 0.295653 0.483651 -0.399742
2.755000 71.507603 57.002839 -0.000000 0.154957 0.169818 -0.157489 -31.285587 376.212479 -0.000000 0.297744 0.481635 -0.399655
2.760000 68.733555 34.269928 -0.000000 0.151906 0.171724 -0.157520 -26.256510 401.920541 -0.000000 0.300052 0.479452 -0.399638
2.765000 65.749897 13.569659 -0.000000 0.148921 0.173776 -0.157585 -22.401760 425.628410 -0.000000 0.302317 0.477099 -0.399711
2.770000 62.535207 -4.886080 -0.000000 0.146009 0.175921 -0.157522 -19.755445 446.691604 -0.000000 0.304615 0.474618 -0.399815
2.775000 59.097237 -21.074361 -0.000000 0.143110 0.177951 -0.157580 -18.567276 464.742700 -0.000000 0.306881 0.472160 -0.400057
2.780000 55.445971 -35.297570 -0.000000 0.140285 0.180116 -0.157592 -18.297340 479.737653 -0.000000 0.309345 0.469488 -0.400331
2.785000 51.644612 -47.904173 -0.000000 0.137577 0.182453 -0.157548 -19.171699 491.823793 -0.000000 0.311878 0.466803 -0.400600
2.790000 47.766334 -59.338554 -0.000000 0.134843 0.184716 -0.157570 -21.055770 501.316871 -0.000000 0.314575 0.464196 -0.400720
2.795000 43.860696 -70.013069 -0.000000 0.132152 0.187190 -0.157583 -23.672338 508.628620 -0.000000 0.317356 0.461547 -0.400859
2.800000 39.969838 -80.218032 -0.000000 0.129465 0.189760 -0.157628 -26.919430 514.173102 -0.000000 0.320180 0.458839 -0.400984
2.805000 36.139963 -90.093361 -0.000000 0.126841 0.192319 -0.157665 -30.924028 518.295825 -0.000000 0.322944 0.456135 -0.400985
2.810000 32.222323 -99.692107 -0.000000 0.124228 0.195161 -0.157690 -34.971620 521.341822 -0.000000 0.325783 0.453473 -0.400997
2.815000 28.135995 -108.859392 -0.000000 0.121650 0.198007 -0.157723 -39.157657 523.602113 -0.000000 0.328541 0.450715 -0.400923
2.820000 23.710699 -117.337962 -0.000000 0.119201 0.200902 -0.157804 -43.328984 525.382500 -0.000000 0.331217 0.447877 -0.400821
2.825000 18.681353 -124.825091 -0.000000 0.116893 0.203859 -0.157841 -46.957115 527.011754 -0.000000 0.334120 0.445006 -0.400772
2.830000 13.017675 -130.998819 -0.000000 0.114657 0.206845 -0.157880 -50.264292 528.734160 -0.000000 0.336776 0.441952 -0.400768
2.835000 6.727486 -135.631993 -0.000000 0.112603 0.209893 -0.157871 -53.097222 530.790412 -0.000000 0.339413 0.438819 -0.400745
2.840000 -0.008906 -138.616826 -0.000000 0.110613 0.212882 -0.157965 -55.533897 533.357483 -0.000000 0.341968 0.435605 -0.400772
2.845000 -7.043270 -139.986836 -0.000000 0.108636 0.216020 -0.158139 -57.227396 536.615623 -0.000000 0.344563 0.432307 -0.400681
2.850000 -13.895767 -139.907455 -0.000000 0.106838 0.219157 -0.158247 -58.994296 540.580975 -0.000000 0.346930 0.428938 -0.400695
2.855000 -20.364923 -138.620780 -0.000000 0.105062 0.222331 -0.158272 -60.701155 545.325853 -0.000000 0.349106 0.425454 -0.400838
2.860000 -26.281684 -136.379607 -0.000000 0.103313 0.225576 -0.158354 -62.367334 550.874119 -0.000000 0.351318 0.421929 -0.400832
2.865000 -31.443858 -133.416645 -0.000000 0.101648 0.228877 -0.158396 -64.485466 557.173886 -0.000000 0.353406 0.418383 -0.400820
2.870000 -35.841025 -129.879898 -0.000000 0.100082 0.232279 -0.158390 -67.075266 564.205781 -0.000000 0.355388 0.414766 -0.400788
2.875000 -39.469457 -125.883549 -0.000000 0.098592 0.235645 -0.158295 -70.352375 571.925256 -0.000000 0.357283 0.411094 -0.400747
2.880000 -42.436223 -121.507625 -0.000000 0.097169 0.239009 -0.158277 -74.197254 580.363200 -0.000000 0.359075 0.407347 -0.400634
2.885000 -44.897596 -116.811961 -0.000000 0.095861 0.242494 -0.158169 -78.271310 589.617971 -0.000000 0.360753 0.403474 -0.400460
